# xmcd
#
# Track frame offsets: 
#        150
#        17935
#        32365
#        59910
#        99610
#        115960
#        129740
#        147460
#        163850
#
# Disc length: 2548 seconds
#
# Revision: 4
# Processed by: cddbd v1.5.2PL0 Copyright (c) Steve Scherf et al.
# Submitted via: ExactAudioCopy v1.0b4
#
DISCID=8609f209
DTITLE=Peter Green - White Sky
DYEAR=1982
DGENRE=Blues Rock
TTITLE0=Time For Me To Go
TTITLE1=Shining Star
TTITLE2=The Clown
TTITLE3=White Sky (Love That Evil Woman)
TTITLE4=It's Gonna be Me
TTITLE5=Born On The Wild Side
TTITLE6=Fallin' Apart
TTITLE7=Indian Lover
TTITLE8=Just Another Guy
EXTD=
EXTT0=
EXTT1=
EXTT2=
EXTT3=
EXTT4=
EXTT5=
EXTT6=
EXTT7=
EXTT8=
PLAYORDER=
